<?xml version="1.0" standalone="no"?>
<!DOCTYPE svg PUBLIC "-//W3C//DTD SVG 1.1//EN" "http://www.w3.org/Graphics/SVG/1.1/DTD/svg11.dtd" >
<svg>
<metadata>
Created by FontForge 20110222 at Mon Mar  7 13:32:07 2011
 By www-data
Copyright (c) 2010 by Andres sanchez. All rights reserved.
</metadata>
<defs>
<font id="Neometric-Medium" horiz-adv-x="472" >
  <font-face 
    font-family="Neometric"
    font-weight="500"
    font-stretch="normal"
    units-per-em="1000"
    panose-1="0 0 0 0 0 0 0 0 0 0"
    ascent="800"
    descent="-200"
    x-height="411"
    cap-height="619"
    bbox="30 -207 725 630"
    underline-thickness="50"
    underline-position="-450"
    unicode-range="U+0020-201D"
  />
    <missing-glyph />
    <glyph glyph-name="space" unicode=" " horiz-adv-x="300" 
 />
    <glyph glyph-name="A" unicode="A" horiz-adv-x="678" 
d="M108 167v-167h-78v309v0c0 171 139 309 309 309c171 0 309 -138 309 -309v-309h-77v167h-463zM108 309v-64h463v64v0c0 128 -104 232 -232 232s-231 -104 -231 -232z" />
    <glyph glyph-name="a" unicode="a" 
d="M236 412c114 0 206 -92 206 -206v-206h-77v45c-36 -28 -80 -45 -129 -45c-114 0 -206 92 -206 206s92 206 206 206zM236 77c71 0 129 58 129 129s-58 129 -129 129s-129 -58 -129 -129s58 -129 129 -129z" />
    <glyph glyph-name="b" unicode="b" 
d="M236 412c114 0 206 -93 206 -206c0 -114 -92 -206 -206 -206c-113 0 -206 92 -206 206v412h78v-252c35 29 80 46 128 46zM236 77c71 0 129 58 129 129s-58 128 -129 128s-128 -57 -128 -128s57 -129 128 -129z" />
    <glyph glyph-name="c" unicode="c" horiz-adv-x="457" 
d="M236 0c-113 0 -206 92 -206 206c0 113 93 206 206 206c87 0 161 -54 191 -129h-88c-23 31 -61 51 -103 51c-71 0 -128 -57 -128 -128s57 -129 128 -129c42 0 80 20 103 51h88c-30 -75 -104 -128 -191 -128z" />
    <glyph glyph-name="d" unicode="d" 
d="M236 0c-114 0 -206 92 -206 206s92 206 206 206c49 0 94 -17 129 -45v251h77v-412c0 -114 -92 -206 -206 -206zM236 335c-71 0 -129 -58 -129 -129s58 -129 129 -129s129 58 129 129s-58 129 -129 129z" />
    <glyph glyph-name="e" unicode="e" 
d="M236 0c-114 0 -206 92 -206 206c0 113 92 206 206 206s206 -93 206 -206c0 -14 -2 -27 -4 -39h-325c16 -52 65 -90 123 -90c36 0 68 15 92 38h93c-33 -68 -104 -115 -185 -115zM236 334c-58 0 -107 -38 -123 -90h246c-17 52 -66 90 -123 90z" />
    <glyph glyph-name="f" unicode="f" horiz-adv-x="344" 
d="M314 540c-71 0 -129 -57 -129 -128v0h129v-78h-129v-334h-77v334h-78v78h78v0v0c0 113 92 206 206 206v-78z" />
    <glyph glyph-name="g" unicode="g" 
d="M365 0v1v45c-35 -29 -80 -46 -129 -46c-113 0 -206 93 -206 206c0 114 93 206 206 206c114 0 206 -92 206 -206v-205v-1c0 -113 -92 -206 -206 -206c-96 0 -176 66 -199 155h81c20 -45 66 -77 118 -77c71 0 129 57 129 128zM236 78c71 0 129 57 129 128s-58 129 -129 129
s-128 -58 -128 -129s57 -128 128 -128z" />
    <glyph glyph-name="h" unicode="h" 
d="M108 366c35 29 80 46 128 46c114 0 206 -93 206 -206v0v-206h-77v206v0c0 71 -58 128 -129 128s-128 -57 -128 -128v0v-206v0h-78v0v618h78v-252z" />
    <glyph glyph-name="i" unicode="i" horiz-adv-x="138" 
d="M30 0v412h78v-412h-78zM108 567v-77h-78v77h78z" />
    <glyph glyph-name="j" unicode="j" horiz-adv-x="137" 
d="M30 -206v618h77v-618h-77zM107 566v-77h-77v77h77z" />
    <glyph glyph-name="k" unicode="k" horiz-adv-x="392" 
d="M107 207v-207h-77v618h77v-411zM362 1h-98l-157 206l157 206h98l-158 -206z" />
    <glyph glyph-name="l" unicode="l" horiz-adv-x="138" 
d="M30 0v618h78v-618h-78z" />
    <glyph glyph-name="m" unicode="m" horiz-adv-x="678" 
d="M108 238v-238h-78v238c0 96 78 174 174 174c55 0 103 -25 135 -65c32 40 81 65 136 65c96 0 173 -78 173 -174v-238h-77v238v0c0 53 -43 97 -96 97c-54 0 -97 -44 -97 -97v0v-238h-77v238v0c0 53 -44 97 -97 97s-96 -44 -96 -97v0z" />
    <glyph glyph-name="n" unicode="n" 
d="M107 206v-206h-77v206v0c0 114 92 206 206 206s206 -92 206 -206v0v-206h-77v206v0c0 71 -58 129 -129 129s-129 -58 -129 -129v0z" />
    <glyph glyph-name="o" unicode="o" 
d="M236 412c114 0 206 -92 206 -206c0 -113 -92 -206 -206 -206s-206 93 -206 206c0 114 92 206 206 206zM236 78c71 0 129 57 129 128s-58 129 -129 129s-129 -58 -129 -129s58 -128 129 -128z" />
    <glyph glyph-name="p" unicode="p" 
d="M236 412c114 0 206 -93 206 -206c0 -114 -92 -206 -206 -206c-49 0 -94 17 -129 45v-251h-77v412c0 113 92 206 206 206zM236 77c71 0 129 58 129 129s-58 128 -129 128s-129 -57 -129 -128s58 -129 129 -129z" />
    <glyph glyph-name="q" unicode="q" 
d="M236 411c114 0 206 -92 206 -206v-412h-77v252c-35 -29 -80 -46 -129 -46c-113 0 -206 93 -206 206c0 114 93 206 206 206zM236 77c71 0 129 57 129 128s-58 129 -129 129s-128 -58 -128 -129s57 -128 128 -128z" />
    <glyph glyph-name="r" unicode="r" horiz-adv-x="266" 
d="M30 206c0 114 93 206 206 206v-77c-71 0 -128 -58 -128 -129v0v-206h-78v206v0z" />
    <glyph glyph-name="s" unicode="s" 
d="M152 412v0h290v-77h-290v0c-25 0 -45 -20 -45 -45s20 -45 45 -45v0v0h168v0c67 0 122 -55 122 -122c0 -68 -55 -123 -122 -123v0h-290v78h290v0c25 0 45 20 45 45c0 24 -20 45 -45 45v0h-168v0c-67 0 -122 55 -122 122c0 68 55 122 122 122z" />
    <glyph glyph-name="t" unicode="t" horiz-adv-x="343" 
d="M184 618v-206h129v-77h-129v-335h-77v335h-77v77h77v206h77z" />
    <glyph glyph-name="u" unicode="u" 
d="M365 206v206h77v-206v0c0 -114 -92 -206 -206 -206s-206 92 -206 206v0v206h77v-206v0c0 -71 58 -129 129 -129s129 58 129 129v0z" />
    <glyph glyph-name="v" unicode="v" horiz-adv-x="512" 
d="M256 104l123 308h83l-164 -412h-42h-41l-165 412h83z" />
    <glyph glyph-name="w" unicode="w" horiz-adv-x="755" 
d="M519 104l123 308h83l-164 -412h-42h-41l-100 251l-100 -251h-42h-41l-165 412h84l122 -308l92 231h99z" />
    <glyph glyph-name="x" unicode="x" 
d="M345 412h97l-157 -206l157 -206h-97l-109 143l-109 -143h-97l157 206l-157 206h97l109 -142z" />
    <glyph glyph-name="y" unicode="y" 
d="M236 104l122 307h84l-165 -412v0l-82 -206h-84l83 206l-164 412h83z" />
    <glyph glyph-name="z" unicode="z" 
d="M442 412v-38v0v-40l-295 -257h295v-77h-412v37v40v0v0l294 257h-294v78h412z" />
    <glyph glyph-name="parenleft" unicode="(" horiz-adv-x="290" 
d="M260 -54v-88c-136 67 -230 207 -230 368c0 162 94 302 230 368v-88c-20 -12 -38 -27 -56 -45c-62 -62 -97 -146 -97 -235c0 -88 35 -172 97 -235c18 -17 36 -32 56 -45z" />
    <glyph glyph-name="parenright" unicode=")" horiz-adv-x="290" 
d="M30 -56c20 13 38 28 56 45c62 63 97 147 97 235c0 89 -35 173 -97 235c-18 18 -36 33 -56 45v88c136 -66 230 -206 230 -368c0 -161 -94 -301 -230 -368v88z" />
    <glyph glyph-name="question" unicode="?" horiz-adv-x="341" 
d="M130 77h77v-77h-77v77zM171 205c35 0 64 29 64 64h76c0 -77 -63 -140 -140 -140c-78 0 -141 63 -141 140c0 78 63 141 141 141v0c35 0 64 28 64 64c0 35 -29 64 -64 64s-64 -29 -64 -64h-77c0 77 63 140 141 140c77 0 140 -63 140 -140c0 -78 -63 -141 -140 -141v0
c-35 0 -64 -29 -64 -64s29 -64 64 -64z" />
    <glyph glyph-name="colon" unicode=":" horiz-adv-x="137" 
d="M30 268h77v-76h-77v76zM30 77h77v-77h-77v77z" />
    <glyph glyph-name="semicolon" unicode=";" horiz-adv-x="214" 
d="M107 268h77v-76h-77v76zM107 77h77l-128 -179h-26z" />
    <glyph glyph-name="period" unicode="." horiz-adv-x="137" 
d="M30 76h77v-76h-77v76z" />
    <glyph glyph-name="comma" unicode="," horiz-adv-x="214" 
d="M107 77h77l-128 -179h-26z" />
    <glyph glyph-name="zero" unicode="0" 
d="M236 618c114 0 206 -92 206 -206v0v-206v0c0 -114 -92 -206 -206 -206c-115 0 -206 92 -206 206v0v206v0c0 114 91 206 206 206zM364 412v0c0 71 -58 128 -128 128c-71 0 -130 -57 -130 -128v0v-206v0c0 -71 59 -130 130 -130c70 0 128 59 128 130v0v206z" />
    <glyph glyph-name="one" unicode="1" horiz-adv-x="215" 
d="M107 618v0h78v-618h-78v540h-77v78h77z" />
    <glyph glyph-name="two" unicode="2" horiz-adv-x="474" 
d="M403 535c67 -92 49 -220 -42 -288l-228 -169h309v-78h-412v0v97l288 214c53 44 64 123 22 178c-42 57 -123 69 -179 26c-34 -25 -52 -63 -52 -103h-78c0 63 29 125 83 165c91 68 221 49 289 -42z" />
    <glyph glyph-name="three" unicode="3" 
d="M341 382c61 -36 101 -101 101 -176c0 -114 -92 -206 -206 -206c-115 0 -206 92 -206 206h76c0 -71 59 -130 130 -130c70 0 129 59 129 130s-59 129 -129 129h-58v77h58c35 0 64 29 64 65s-29 64 -64 64c-36 0 -65 -28 -65 -64h-77c0 78 63 141 142 141
c78 0 141 -63 141 -141c0 -37 -13 -69 -36 -95z" />
    <glyph glyph-name="four" unicode="4" 
d="M388 618v-335h54v-77h-54v-206h-77v206h-281v76l261 336h97zM311 283v235l-182 -235h182z" />
    <glyph glyph-name="five" unicode="5" 
d="M442 541h-334v-129h128v0c113 0 206 -93 206 -206s-93 -206 -206 -206v0h-206v77h206v0c72 1 128 58 128 129c0 72 -56 128 -128 128v0h-206v284v0h412v-77z" />
    <glyph glyph-name="six" unicode="6" 
d="M236 412c114 0 206 -92 206 -206s-92 -206 -206 -206c-115 0 -206 92 -206 206c0 36 8 70 25 100l153 312h86l-103 -211c14 3 29 5 45 5zM236 76c70 0 128 59 128 130s-58 128 -128 128c-71 0 -130 -57 -130 -128s59 -130 130 -130z" />
    <glyph glyph-name="ampersand" unicode="&#x26;" horiz-adv-x="611" 
d="M581 1h-102l-76 85c-49 -67 -135 -101 -219 -78c-111 30 -176 144 -146 253c16 56 54 101 104 127c-18 22 -30 49 -31 81c-4 78 55 145 133 149c77 4 143 -56 147 -134c4 -69 -42 -129 -105 -145l93 -108l27 78l74 -24l-41 -122zM248 541c-36 -2 -62 -32 -61 -68
c2 -36 33 -63 68 -61c35 1 61 32 60 68c-2 35 -32 63 -67 61zM204 82c59 -16 119 13 146 66l-156 178c-38 -13 -69 -44 -81 -85c-19 -69 22 -140 91 -159z" />
    <glyph glyph-name="seven" unicode="7" 
d="M405 618h37v-30v-4v-44v0l-223 -540h-84l224 540h-329v77z" />
    <glyph glyph-name="eight" unicode="8" 
d="M342 382c60 -36 100 -101 100 -176c0 -114 -92 -206 -206 -206s-206 92 -206 206c0 75 40 140 100 176c-23 26 -35 57 -35 93c0 80 63 143 141 143c79 0 141 -63 141 -143c0 -36 -12 -67 -35 -93zM236 541c-36 0 -64 -30 -64 -66c0 -34 28 -63 64 -63c35 0 65 29 65 63
c0 36 -30 66 -65 66zM236 76c71 0 129 60 129 130c0 71 -58 129 -129 129c-70 0 -129 -58 -129 -129c0 -70 59 -130 129 -130z" />
    <glyph glyph-name="nine" unicode="9" horiz-adv-x="474" 
d="M236 618c115 0 208 -93 208 -207c0 -36 -10 -71 -27 -101l-154 -313h-86l103 212c-14 -3 -29 -5 -44 -5c-114 0 -206 94 -206 207c0 114 92 207 206 207zM236 282c71 0 130 57 130 129s-59 129 -130 129s-129 -57 -129 -129s58 -129 129 -129z" />
    <glyph glyph-name="B" unicode="B" horiz-adv-x="678" 
d="M473 0v0h-443v618h443c97 0 175 -78 175 -174c0 -55 -26 -103 -65 -135c39 -32 65 -81 65 -136c0 -96 -78 -173 -175 -173zM107 540v-193h366v0c54 0 97 44 97 97s-43 96 -97 96h-366zM107 270v-193h366v0c54 0 98 43 98 96c0 54 -44 97 -98 97v0h-366z" />
    <glyph glyph-name="C" unicode="C" horiz-adv-x="661" 
d="M340 1c-171 0 -310 138 -310 309s139 309 310 309c134 0 248 -86 291 -206h-84c-38 76 -117 129 -207 129c-128 0 -232 -104 -232 -232s104 -232 232 -232c90 0 169 53 207 129h84c-43 -120 -157 -206 -291 -206z" />
    <glyph glyph-name="D" unicode="D" horiz-adv-x="679" 
d="M649 309c0 -171 -139 -309 -309 -309h-310v618h310c170 0 309 -138 309 -309zM108 541v-464h232v0c127 0 231 104 231 232s-104 232 -231 232v0h-232z" />
    <glyph glyph-name="E" unicode="E" horiz-adv-x="678" 
d="M648 77v-77h-618v618h618v-77h-541v-192h490v-78h-490v-194h541z" />
    <glyph glyph-name="F" unicode="F" horiz-adv-x="678" 
d="M648 540h-540v-192h489v-77h-489v-271h-78v618h618v-78z" />
    <glyph glyph-name="G" unicode="G" horiz-adv-x="678" 
d="M339 0c-171 0 -309 138 -309 309c0 170 138 309 309 309c134 0 248 -86 291 -205h-84c-39 75 -117 127 -207 127c-128 0 -232 -104 -232 -231c0 -128 104 -232 232 -232c101 0 187 65 219 156h-208v77h298v-1c0 -171 -139 -309 -309 -309z" />
    <glyph glyph-name="H" unicode="H" horiz-adv-x="679" 
d="M108 272v-272h-78v618h78v-268h463v268h78v-618h-78v272h-463z" />
    <glyph glyph-name="I" unicode="I" horiz-adv-x="138" 
d="M30 0v619h78v-619h-78z" />
    <glyph glyph-name="J" unicode="J" horiz-adv-x="369" 
d="M30 78c128 0 232 104 232 231v0v309h77v-309c0 -170 -138 -309 -309 -309v78z" />
    <glyph glyph-name="K" unicode="K" horiz-adv-x="497" 
d="M30 618h78v-309v-309h-78v618zM366 0l-258 309v0l258 309h101l-259 -309l259 -309h-101z" />
    <glyph glyph-name="L" unicode="L" horiz-adv-x="490" 
d="M30 619h78v-541h352v-78h-429h-1v619z" />
    <glyph glyph-name="M" unicode="M" horiz-adv-x="678" 
d="M474 618c96 0 174 -78 174 -174v0v-444h-77v444v0c0 53 -44 97 -97 97s-97 -44 -97 -97v0v-444h-77v444v0c0 53 -43 97 -96 97c-54 0 -97 -44 -97 -97v-154v-290h-77v444c0 96 78 174 174 174c54 0 103 -25 135 -65c32 40 80 65 135 65z" />
    <glyph glyph-name="N" unicode="N" horiz-adv-x="679" 
d="M340 618c170 0 309 -138 309 -309v-309h-78v309v0c0 128 -104 232 -231 232c-128 0 -232 -104 -232 -232v-309h-78v309h1c0 171 138 309 309 309z" />
    <glyph glyph-name="O" unicode="O" horiz-adv-x="678" 
d="M339 0c-170 0 -309 139 -309 309c0 171 139 309 309 309c171 0 309 -138 309 -309c0 -170 -138 -309 -309 -309zM339 541c-128 0 -232 -104 -232 -232c0 -127 104 -231 232 -231s232 104 232 231c0 128 -104 232 -232 232z" />
    <glyph glyph-name="P" unicode="P" horiz-adv-x="678" 
d="M474 619c96 0 174 -78 174 -174s-78 -174 -174 -174v0h-366v-271h-78v619h444zM474 348c54 0 97 43 97 97c0 53 -43 96 -97 96v0h-366v-193h366v0z" />
    <glyph glyph-name="Q" unicode="Q" horiz-adv-x="678" 
d="M648 309c0 -85 -35 -163 -91 -219l91 -90h-109l-43 43c-46 -27 -100 -43 -157 -43c-171 0 -309 138 -309 309s138 309 309 309c170 0 309 -138 309 -309zM339 77c128 0 232 104 232 232s-104 232 -232 232s-232 -104 -232 -232s104 -232 232 -232z" />
    <glyph glyph-name="R" unicode="R" horiz-adv-x="679" 
d="M584 309c39 -32 65 -80 65 -135v0v-174h-78v174v0c0 53 -43 97 -97 97v0h-366v-271h-78v618h444c96 0 174 -78 174 -174c0 -54 -25 -103 -64 -135zM474 348c54 0 97 43 97 96c0 54 -43 97 -97 97h-366v-193h366v0z" />
    <glyph glyph-name="S" unicode="S" horiz-adv-x="678" 
d="M473 347c97 0 175 -77 175 -173s-78 -174 -175 -174v0h-443v77h443v0c54 0 97 43 97 97c0 53 -43 96 -97 96v0h-269v0c-96 0 -174 78 -174 174s78 174 174 174h443v-77h-443v0c-54 0 -97 -44 -97 -97s43 -96 97 -96v-1h269v0z" />
    <glyph glyph-name="T" unicode="T" horiz-adv-x="679" 
d="M30 537v78h619v-78h-271v-537h-77v537h-271z" />
    <glyph glyph-name="U" unicode="U" horiz-adv-x="678" 
d="M571 309v309h77v-309v0c0 -171 -138 -309 -309 -309c-170 0 -309 138 -309 309v309h78v-309v0c0 -128 103 -232 231 -232s232 104 232 232z" />
    <glyph glyph-name="V" unicode="V" horiz-adv-x="679" 
d="M340 78l225 540h84l-258 -618h-103l-258 618h84z" />
    <glyph glyph-name="W" unicode="W" horiz-adv-x="700" 
d="M514 183l78 435h78l-112 -618h-85l-113 540l-112 -540h-84v0v0l-114 618h78l80 -433l100 433h103z" />
    <glyph glyph-name="X" unicode="X" horiz-adv-x="679" 
d="M649 618l-259 -309l259 -309h-101l-208 249l-209 -249h-101l259 309l-258 309h100l209 -248l208 248h101z" />
    <glyph glyph-name="Y" unicode="Y" horiz-adv-x="678" 
d="M339 370l208 249h101l-270 -324v-295h-77v295l-271 324h101z" />
    <glyph glyph-name="Z" unicode="Z" horiz-adv-x="678" 
d="M30 540v78h618v-78v0v0l-504 -463h504v-77h-618v77v0l504 463h-504z" />
    <glyph glyph-name="quotedblleft" unicode="&#x201c;" horiz-adv-x="320" 
d="M213 451h-77l128 179h26zM106 451h-76l127 179h26z" />
    <glyph glyph-name="quotedblright" unicode="&#x201d;" horiz-adv-x="316" 
d="M107 630h76l-127 -179h-26zM209 630h77l-128 -179h-26z" />
    <glyph glyph-name="exclam" unicode="!" horiz-adv-x="137" 
d="M30 614h77v-486h-77v486zM30 77h77v-77h-77v77z" />
  </font>
</defs>
</svg>
